<svg width="138" height="41" viewBox="0 0 138 41" fill="none" xmlns="http://www.w3.org/2000/svg">
<path d="M5.1666 39.7786H131.939C134.388 39.7786 136.383 37.8196 136.383 35.4469V5.74134C136.383 3.36866 134.388 1.40961 131.939 1.40961H5.1666C2.71763 1.40961 0.722198 3.36866 0.722198 5.74134V35.4469C0.722198 37.8196 2.71763 39.7786 5.1666 39.7786Z" fill="black" stroke="black"/>
<path d="M131.939 1.58379C134.287 1.58379 136.197 3.44906 136.197 5.74134V35.4469C136.197 37.7392 134.287 39.6044 131.939 39.6044H5.1666C2.81877 39.6044 0.908314 37.7392 0.908314 35.4469V5.74134C0.908314 3.44906 2.81877 1.58379 5.1666 1.58379H131.939ZM131.939 0.790408H5.1666C2.37887 0.790408 0.0957031 3.01956 0.0957031 5.74134V35.4469C0.0957031 38.1687 2.37887 40.3978 5.1666 40.3978H131.939C134.727 40.3978 137.01 38.1687 137.01 35.4469V5.74134C137.01 3.01956 134.727 0.790408 131.939 0.790408Z" fill="white"/>
<path d="M48.1852 10.9338C48.1852 11.7607 47.9316 12.4228 47.4321 12.9167C46.8579 13.5021 46.1099 13.7967 45.1933 13.7967C44.3174 13.7967 43.5694 13.4972 42.9558 12.9068C42.341 12.3077 42.0342 11.5725 42.0342 10.6925C42.0342 9.81246 42.341 9.07725 42.9558 8.48314C43.5694 7.88779 44.3174 7.58826 45.1933 7.58826C45.6294 7.58826 46.0453 7.67614 46.4421 7.83952C46.8376 8.00413 47.1596 8.22693 47.3928 8.5017L46.8629 9.02403C46.456 8.55493 45.902 8.32347 45.1933 8.32347C44.5544 8.32347 44.0004 8.54131 43.5301 8.98071C43.0648 9.42134 42.8316 9.99193 42.8316 10.6925C42.8316 11.393 43.0648 11.9686 43.5301 12.4092C44.0004 12.8437 44.5544 13.0665 45.1933 13.0665C45.8716 13.0665 46.4421 12.8437 46.8921 12.4043C47.1887 12.1134 47.3574 11.7124 47.4017 11.2H45.1933V10.4845H48.1395C48.175 10.6393 48.1852 10.789 48.1852 10.9338Z" fill="white" stroke="white" stroke-width="0.132798" stroke-miterlimit="10"/>
<path d="M52.8597 8.45327H50.0923V10.3346H52.5872V11.05H50.0923V12.9314H52.8597V13.6604H49.3088V7.72424H52.8597V8.45327Z" fill="white" stroke="white" stroke-width="0.132798" stroke-miterlimit="10"/>
<path d="M56.1587 13.6604H55.3752V8.45327H53.6777V7.72424H57.8574V8.45327H56.1587V13.6604Z" fill="white" stroke="white" stroke-width="0.132798" stroke-miterlimit="10"/>
<path d="M60.8816 13.6604V7.72424H61.6638V13.6604H60.8816Z" fill="white" stroke="white" stroke-width="0.132798" stroke-miterlimit="10"/>
<path d="M65.1306 13.6604H64.3535V8.45327H62.6497V7.72424H66.8344V8.45327H65.1306V13.6604Z" fill="white" stroke="white" stroke-width="0.132798" stroke-miterlimit="10"/>
<path d="M74.7476 12.8969C74.148 13.4972 73.4051 13.7967 72.5189 13.7967C71.6277 13.7967 70.8848 13.4972 70.2852 12.8969C69.6868 12.2978 69.3889 11.5626 69.3889 10.6925C69.3889 9.82236 69.6868 9.08715 70.2852 8.48809C70.8848 7.88779 71.6277 7.58826 72.5189 7.58826C73.4 7.58826 74.1429 7.88779 74.7425 8.49304C75.346 9.09705 75.6439 9.82731 75.6439 10.6925C75.6439 11.5626 75.346 12.2978 74.7476 12.8969ZM70.8645 12.3993C71.3159 12.8437 71.8648 13.0665 72.5189 13.0665C73.168 13.0665 73.722 12.8437 74.1682 12.3993C74.6183 11.955 74.8465 11.3844 74.8465 10.6925C74.8465 10.0006 74.6183 9.43 74.1682 8.98566C73.722 8.54131 73.168 8.31852 72.5189 8.31852C71.8648 8.31852 71.3159 8.54131 70.8645 8.98566C70.4145 9.43 70.1863 10.0006 70.1863 10.6925C70.1863 11.3844 70.4145 11.955 70.8645 12.3993Z" fill="white" stroke="white" stroke-width="0.132798" stroke-miterlimit="10"/>
<path d="M76.7422 13.6604V7.72424H77.693L80.6493 12.341H80.6835L80.6493 11.1998V7.72424H81.4315V13.6604H80.6151L77.5193 8.81592H77.4851L77.5193 9.96206V13.6604H76.7422Z" fill="white" stroke="white" stroke-width="0.132798" stroke-miterlimit="10"/>
<path d="M69.1969 22.3294C66.8149 22.3294 64.8689 24.0994 64.8689 26.5414C64.8689 28.9637 66.8149 30.7522 69.1969 30.7522C71.5841 30.7522 73.53 28.9637 73.53 26.5414C73.53 24.0994 71.5841 22.3294 69.1969 22.3294ZM69.1969 29.0936C67.8899 29.0936 66.7655 28.0403 66.7655 26.5414C66.7655 25.0227 67.8899 23.988 69.1969 23.988C70.504 23.988 71.6335 25.0227 71.6335 26.5414C71.6335 28.0403 70.504 29.0936 69.1969 29.0936ZM59.7537 22.3294C57.3665 22.3294 55.4257 24.0994 55.4257 26.5414C55.4257 28.9637 57.3665 30.7522 59.7537 30.7522C62.1395 30.7522 64.0817 28.9637 64.0817 26.5414C64.0817 24.0994 62.1395 22.3294 59.7537 22.3294ZM59.7537 29.0936C58.4454 29.0936 57.3171 28.0403 57.3171 26.5414C57.3171 25.0227 58.4454 23.988 59.7537 23.988C61.0607 23.988 62.1852 25.0227 62.1852 26.5414C62.1852 28.0403 61.0607 29.0936 59.7537 29.0936ZM48.5166 23.6204V25.4101H52.894C52.766 26.4102 52.4237 27.1454 51.8989 27.6578C51.2599 28.2767 50.2648 28.9637 48.5166 28.9637C45.8227 28.9637 43.7132 26.8409 43.7132 24.2108C43.7132 21.5806 45.8227 19.4579 48.5166 19.4579C49.9732 19.4579 51.033 20.0136 51.8152 20.734L53.107 19.4727C52.013 18.4528 50.5576 17.6694 48.5166 17.6694C44.8224 17.6694 41.7178 20.604 41.7178 24.2108C41.7178 27.8175 44.8224 30.7522 48.5166 30.7522C50.5132 30.7522 52.013 30.1135 53.1919 28.9154C54.4001 27.7358 54.7766 26.0773 54.7766 24.738C54.7766 24.3222 54.7411 23.9397 54.6777 23.6204H48.5166ZM94.4665 25.0079C94.1102 24.066 93.0111 22.3294 90.7723 22.3294C88.5538 22.3294 86.7067 24.0362 86.7067 26.5414C86.7067 28.9005 88.5348 30.7522 90.9853 30.7522C92.9668 30.7522 94.1102 29.5726 94.5806 28.8857L93.11 27.9289C92.6194 28.6295 91.9513 29.0936 90.9853 29.0936C90.0256 29.0936 89.3373 28.6641 88.8961 27.8175L94.6655 25.4869L94.4665 25.0079ZM88.5842 26.4102C88.5348 24.7863 89.8761 23.9546 90.837 23.9546C91.59 23.9546 92.2289 24.3222 92.4419 24.8482L88.5842 26.4102ZM83.8949 30.496H85.7914V18.1187H83.8949V30.496ZM80.789 23.2676H80.7256C80.2997 22.775 79.4871 22.3294 78.4577 22.3294C76.2975 22.3294 74.3224 24.1811 74.3224 26.555C74.3224 28.9154 76.2975 30.7522 78.4577 30.7522C79.4871 30.7522 80.2997 30.3029 80.7256 29.7954H80.789V30.3994C80.789 32.0097 79.9079 32.8749 78.4868 32.8749C77.3281 32.8749 76.6093 32.058 76.3127 31.371L74.6634 32.0431C75.1388 33.1596 76.3976 34.5334 78.4868 34.5334C80.7104 34.5334 82.5866 33.2561 82.5866 30.1482V22.5856H80.789V23.2676ZM78.6199 29.0936C77.3129 29.0936 76.2189 28.0255 76.2189 26.555C76.2189 25.071 77.3129 23.988 78.6199 23.988C79.9079 23.988 80.9234 25.071 80.9234 26.555C80.9234 28.0255 79.9079 29.0936 78.6199 29.0936ZM103.346 18.1187H98.8097V30.496H100.701V25.8062H103.346C105.446 25.8062 107.506 24.3222 107.506 21.9618C107.506 19.6027 105.441 18.1187 103.346 18.1187ZM103.395 24.0845H100.701V19.8403H103.395C104.807 19.8403 105.614 20.9852 105.614 21.9618C105.614 22.9198 104.807 24.0845 103.395 24.0845ZM115.087 22.3059C113.721 22.3059 112.3 22.8951 111.715 24.2009L113.394 24.8878C113.755 24.2009 114.419 23.9781 115.121 23.9781C116.103 23.9781 117.098 24.5536 117.113 25.5698V25.6998C116.771 25.5067 116.038 25.2208 115.137 25.2208C113.329 25.2208 111.487 26.1924 111.487 28.0057C111.487 29.6642 112.968 30.7324 114.632 30.7324C115.905 30.7324 116.607 30.1717 117.048 29.5194H117.113V30.4762H118.94V25.7282C118.94 23.5337 117.261 22.3059 115.087 22.3059ZM114.859 29.0887C114.24 29.0887 113.378 28.7891 113.378 28.0403C113.378 27.0823 114.453 26.7147 115.384 26.7147C116.217 26.7147 116.607 26.8942 117.113 27.1306C116.965 28.2767 115.954 29.0887 114.859 29.0887ZM125.595 22.577L123.421 27.9425H123.357L121.109 22.577H119.069L122.446 30.0751L120.519 34.2475H122.496L127.7 22.577H125.595ZM108.546 30.496H110.442V18.1187H108.546V30.496Z" fill="white"/>
<path d="M10.6786 8.25518C10.3807 8.55967 10.2083 9.03372 10.2083 9.64763V31.5456C10.2083 32.1595 10.3807 32.6336 10.6786 32.938L10.7521 33.0049L23.3203 20.739V20.4493L10.7521 8.1834L10.6786 8.25518Z" fill="white"/>
<path d="M27.5041 24.8298L23.3193 20.7391V20.4495L27.5092 16.3588L27.603 16.412L32.5648 19.1684C33.9809 19.9507 33.9809 21.2379 32.5648 22.0251L27.603 24.7766L27.5041 24.8298Z" fill="white"/>
<path d="M27.6041 24.7765L23.3205 20.5942L10.6787 32.9381C11.149 33.4208 11.916 33.479 12.7882 32.9963L27.6041 24.7765Z" fill="white"/>
<path d="M27.6041 16.4119L12.7882 8.19216C11.916 7.7144 11.149 7.77257 10.6787 8.25529L23.3205 20.5942L27.6041 16.4119Z" fill="white"/>
</svg>
