<svg width="31" height="31" viewBox="0 0 31 31" fill="none" xmlns="http://www.w3.org/2000/svg">
<path d="M9.15466 5.71963H5.86623V9.00805H9.15466V5.71963ZM0.933594 4.89752C0.933594 3.80734 1.36667 2.76181 2.13754 1.99093C2.90842 1.22006 3.95394 0.786987 5.04413 0.786987H9.97676C11.0669 0.786987 12.1125 1.22006 12.8833 1.99093C13.6542 2.76181 14.0873 3.80734 14.0873 4.89752V9.83016C14.0873 10.9203 13.6542 11.9659 12.8833 12.7367C12.1125 13.5076 11.0669 13.9407 9.97676 13.9407H5.04413C3.95394 13.9407 2.90842 13.5076 2.13754 12.7367C1.36667 11.9659 0.933594 10.9203 0.933594 9.83016V4.89752ZM5.04413 4.07541C4.82609 4.07541 4.61698 4.16203 4.46281 4.3162C4.30863 4.47038 4.22202 4.67948 4.22202 4.89752V9.83016C4.22202 10.0482 4.30863 10.2573 4.46281 10.4115C4.61698 10.5656 4.82609 10.6523 5.04413 10.6523H9.97676C10.1948 10.6523 10.4039 10.5656 10.5581 10.4115C10.7123 10.2573 10.7989 10.0482 10.7989 9.83016V4.89752C10.7989 4.67948 10.7123 4.47038 10.5581 4.3162C10.4039 4.16203 10.1948 4.07541 9.97676 4.07541H5.04413ZM5.86623 22.1618H9.15466V25.4502H5.86623V22.1618ZM0.933594 21.3396C0.933594 20.2495 1.36667 19.2039 2.13754 18.4331C2.90842 17.6622 3.95394 17.2291 5.04413 17.2291H9.97676C11.0669 17.2291 12.1125 17.6622 12.8833 18.4331C13.6542 19.2039 14.0873 20.2495 14.0873 21.3396V26.2723C14.0873 27.3625 13.6542 28.408 12.8833 29.1789C12.1125 29.9497 11.0669 30.3828 9.97676 30.3828H5.04413C3.95394 30.3828 2.90842 29.9497 2.13754 29.1789C1.36667 28.408 0.933594 27.3625 0.933594 26.2723V21.3396ZM5.04413 20.5175C4.82609 20.5175 4.61698 20.6042 4.46281 20.7583C4.30863 20.9125 4.22202 21.1216 4.22202 21.3396V26.2723C4.22202 26.4903 4.30863 26.6994 4.46281 26.8536C4.61698 27.0078 4.82609 27.0944 5.04413 27.0944H9.97676C10.1948 27.0944 10.4039 27.0078 10.5581 26.8536C10.7123 26.6994 10.7989 26.4903 10.7989 26.2723V21.3396C10.7989 21.1216 10.7123 20.9125 10.5581 20.7583C10.4039 20.6042 10.1948 20.5175 9.97676 20.5175H5.04413ZM25.5968 5.71963H22.3084V9.00805H25.5968V5.71963ZM21.4863 0.786987C20.3961 0.786987 19.3505 1.22006 18.5797 1.99093C17.8088 2.76181 17.3757 3.80734 17.3757 4.89752V9.83016C17.3757 10.9203 17.8088 11.9659 18.5797 12.7367C19.3505 13.5076 20.3961 13.9407 21.4863 13.9407H26.4189C27.5091 13.9407 28.5546 13.5076 29.3255 12.7367C30.0964 11.9659 30.5294 10.9203 30.5294 9.83016V4.89752C30.5294 3.80734 30.0964 2.76181 29.3255 1.99093C28.5546 1.22006 27.5091 0.786987 26.4189 0.786987H21.4863ZM20.6641 4.89752C20.6641 4.67948 20.7508 4.47038 20.9049 4.3162C21.0591 4.16203 21.2682 4.07541 21.4863 4.07541H26.4189C26.6369 4.07541 26.846 4.16203 27.0002 4.3162C27.1544 4.47038 27.241 4.67948 27.241 4.89752V9.83016C27.241 10.0482 27.1544 10.2573 27.0002 10.4115C26.846 10.5656 26.6369 10.6523 26.4189 10.6523H21.4863C21.2682 10.6523 21.0591 10.5656 20.9049 10.4115C20.7508 10.2573 20.6641 10.0482 20.6641 9.83016V4.89752ZM17.3757 17.2291H21.8973V21.7507H17.3757V17.2291ZM26.0078 21.7507H21.8973V25.8612H17.3757V30.3828H21.8973V25.8612H26.0078V30.3828H30.5294V25.8612H26.0078V21.7507ZM26.0078 21.7507V17.2291H30.5294V21.7507H26.0078Z" fill="white"/>
</svg>
