<svg width="138" height="41" viewBox="0 0 138 41" fill="none" xmlns="http://www.w3.org/2000/svg">
<path d="M136.569 35.9764C136.569 38.0872 134.823 39.7969 132.665 39.7969H4.89878C2.74099 39.7969 0.989502 38.0872 0.989502 35.9764V5.50953C0.989502 3.3998 2.74099 1.68408 4.89878 1.68408H132.664C134.823 1.68408 136.568 3.3998 136.568 5.50953L136.569 35.9764Z" fill="black"/>
<path d="M132.252 1.73002C134.603 1.73002 136.516 3.59528 136.516 5.88756V35.5931C136.516 37.8854 134.603 39.7507 132.252 39.7507H5.30541C2.95436 39.7507 1.04127 37.8854 1.04127 35.5931V5.88756C1.04127 3.59528 2.95436 1.73002 5.30541 1.73002H132.252ZM132.252 0.936634H5.30541C2.51385 0.936634 0.227539 3.16579 0.227539 5.88756V35.5931C0.227539 38.3149 2.51385 40.5441 5.30541 40.5441H132.252C135.044 40.5441 137.33 38.3149 137.33 35.5931V5.88756C137.33 3.16579 135.044 0.936634 132.252 0.936634Z" fill="white"/>
<path d="M30.8251 20.5265C30.7957 17.3351 33.5052 15.7825 33.6291 15.7102C32.0946 13.5289 29.7161 13.2308 28.8803 13.207C26.8826 13.0021 24.9449 14.3725 23.9273 14.3725C22.8894 14.3725 21.3224 13.2269 19.6335 13.2605C17.4601 13.2932 15.427 14.52 14.3119 16.4252C12.0106 20.3097 13.7269 26.0181 15.9317 29.1579C17.0346 30.6957 18.3234 32.4127 20.0102 32.3523C21.6606 32.2859 22.277 31.3265 24.2685 31.3265C26.2418 31.3265 26.8207 32.3523 28.5411 32.3137C30.3122 32.2859 31.4273 30.769 32.4917 29.2174C33.7662 27.4548 34.2781 25.719 34.2984 25.6299C34.2567 25.6161 30.8586 24.3516 30.8251 20.5265Z" fill="white"/>
<path d="M27.5753 11.1415C28.4629 10.0592 29.0702 8.58684 28.9016 7.09265C27.6169 7.1481 26.0103 7.95906 25.0851 9.01757C24.2665 9.95033 23.5353 11.4792 23.7242 12.9169C25.1673 13.0219 26.6491 12.207 27.5753 11.1415Z" fill="white"/>
<path d="M54.7078 32.1316H52.4015L51.1381 28.261H46.7467L45.5433 32.1316H43.2979L47.6486 18.9542H50.3358L54.7078 32.1316ZM50.7573 26.6371L49.6147 23.1962C49.4939 22.8447 49.2674 22.0169 48.9333 20.7138H48.8927C48.7596 21.2742 48.5453 22.102 48.2508 23.1962L47.1286 26.6371H50.7573Z" fill="white"/>
<path d="M65.8976 27.2639C65.8976 28.8799 65.4498 30.1573 64.554 31.095C63.7517 31.9297 62.7554 32.3466 61.5662 32.3466C60.2825 32.3466 59.3604 31.897 58.7988 30.9979H58.7581V36.0033H56.5929V25.7579C56.5929 24.7419 56.5655 23.6993 56.5127 22.6299H58.4169L58.5378 24.136H58.5784C59.3004 23.0012 60.3963 22.4348 61.8668 22.4348C63.0164 22.4348 63.9762 22.8774 64.7439 23.7636C65.5137 24.6508 65.8976 25.8173 65.8976 27.2639ZM63.6918 27.3412C63.6918 26.4164 63.4785 25.6539 63.05 25.0539C62.5818 24.4281 61.9531 24.1152 61.165 24.1152C60.6308 24.1152 60.1454 24.2894 59.7118 24.633C59.2771 24.9796 58.9927 25.4321 58.8597 25.9926C58.7927 26.254 58.7591 26.4678 58.7591 26.6362V28.2205C58.7591 28.9116 58.9765 29.4948 59.4111 29.9711C59.8458 30.4474 60.4105 30.685 61.1051 30.685C61.9206 30.685 62.5554 30.3781 63.0093 29.7662C63.4643 29.1532 63.6918 28.3452 63.6918 27.3412Z" fill="white"/>
<path d="M77.1056 27.2639C77.1056 28.8799 76.6577 30.1573 75.761 31.095C74.9597 31.9297 73.9634 32.3466 72.7742 32.3466C71.4905 32.3466 70.5683 31.897 70.0077 30.9979H69.9671V36.0033H67.8019V25.7579C67.8019 24.7419 67.7745 23.6993 67.7217 22.6299H69.6259L69.7467 24.136H69.7874C70.5084 23.0012 71.6042 22.4348 73.0758 22.4348C74.2244 22.4348 75.1841 22.8774 75.9539 23.7636C76.7207 24.6508 77.1056 25.8173 77.1056 27.2639ZM74.8998 27.3412C74.8998 26.4164 74.6855 25.6539 74.2569 25.0539C73.7887 24.4281 73.1621 24.1152 72.373 24.1152C71.8378 24.1152 71.3534 24.2894 70.9187 24.633C70.484 24.9796 70.2007 25.4321 70.0677 25.9926C70.0016 26.254 69.9671 26.4678 69.9671 26.6362V28.2205C69.9671 28.9116 70.1844 29.4948 70.6171 29.9711C71.0517 30.4464 71.6164 30.685 72.3131 30.685C73.1286 30.685 73.7633 30.3781 74.2173 29.7662C74.6723 29.1532 74.8998 28.3452 74.8998 27.3412Z" fill="white"/>
<path d="M89.6385 28.4362C89.6385 29.5571 89.2394 30.4691 88.4381 31.1731C87.5576 31.9425 86.3318 32.3267 84.7566 32.3267C83.3023 32.3267 82.1364 32.0534 81.2539 31.5058L81.7556 29.7462C82.7062 30.3067 83.7492 30.5879 84.8856 30.5879C85.7011 30.5879 86.3358 30.4077 86.7918 30.0492C87.2458 29.6908 87.4723 29.2096 87.4723 28.6095C87.4723 28.0748 87.2854 27.6243 86.9107 27.2589C86.5379 26.8935 85.9154 26.5539 85.0461 26.24C82.6798 25.3795 81.4976 24.119 81.4976 22.4614C81.4976 21.3782 81.912 20.49 82.7417 19.7988C83.5684 19.1067 84.6713 18.7611 86.0505 18.7611C87.2803 18.7611 88.302 18.97 89.1175 19.3869L88.5762 21.1079C87.8145 20.7039 86.9533 20.5019 85.9895 20.5019C85.2279 20.5019 84.6327 20.685 84.2062 21.0494C83.8457 21.3752 83.6649 21.7723 83.6649 22.2426C83.6649 22.7634 83.871 23.1942 84.2854 23.5328C84.6459 23.8457 85.301 24.1844 86.2516 24.5497C87.4144 25.0062 88.2685 25.5399 88.8179 26.1519C89.3653 26.7618 89.6385 27.5252 89.6385 28.4362Z" fill="white"/>
<path d="M96.7971 24.2142H94.4105V28.8274C94.4105 30.0008 94.8309 30.587 95.6739 30.587C96.0608 30.587 96.3817 30.5543 96.6356 30.489L96.6955 32.0921C96.269 32.2475 95.7074 32.3258 95.0117 32.3258C94.1566 32.3258 93.4883 32.0713 93.0059 31.5633C92.5256 31.0544 92.2839 30.2008 92.2839 29.0017V24.2122H90.8621V22.6279H92.2839V20.8881L94.4105 20.2623V22.6279H96.7971V24.2142Z" fill="white"/>
<path d="M107.565 27.3024C107.565 28.763 107.136 29.9621 106.281 30.8998C105.384 31.8652 104.194 32.3464 102.71 32.3464C101.281 32.3464 100.142 31.884 99.2931 30.9592C98.444 30.0344 98.0195 28.8669 98.0195 27.4599C98.0195 25.9875 98.4562 24.7814 99.3327 23.8437C100.207 22.905 101.387 22.4357 102.871 22.4357C104.301 22.4357 105.452 22.8981 106.32 23.8239C107.151 24.722 107.565 25.8815 107.565 27.3024ZM105.318 27.3708C105.318 26.4944 105.127 25.7429 104.738 25.1161C104.284 24.3576 103.635 23.9794 102.794 23.9794C101.923 23.9794 101.262 24.3586 100.808 25.1161C100.419 25.7439 100.227 26.5073 100.227 27.4104C100.227 28.2867 100.419 29.0382 100.808 29.664C101.276 30.4225 101.931 30.8008 102.774 30.8008C103.601 30.8008 104.25 30.4146 104.718 29.6442C105.117 29.0056 105.318 28.2461 105.318 27.3708Z" fill="white"/>
<path d="M114.604 24.4865C114.389 24.4479 114.161 24.4281 113.921 24.4281C113.159 24.4281 112.57 24.7083 112.156 25.2697C111.796 25.7648 111.615 26.3906 111.615 27.1461V32.1317H109.451L109.471 25.6222C109.471 24.5271 109.443 23.53 109.39 22.6309H111.276L111.355 24.4489H111.415C111.643 23.824 112.004 23.321 112.497 22.9438C112.98 22.6041 113.501 22.4348 114.062 22.4348C114.262 22.4348 114.443 22.4487 114.604 22.4734V24.4865Z" fill="white"/>
<path d="M124.286 26.9311C124.286 27.3094 124.26 27.6282 124.207 27.8886H117.711C117.736 28.8273 118.05 29.5452 118.653 30.0403C119.201 30.4829 119.909 30.7047 120.778 30.7047C121.74 30.7047 122.617 30.5552 123.406 30.2552L123.746 31.7207C122.823 32.1128 121.735 32.3078 120.478 32.3078C118.967 32.3078 117.781 31.8741 116.918 31.0077C116.057 30.1413 115.625 28.9778 115.625 27.5183C115.625 26.0855 116.026 24.8923 116.829 23.9408C117.67 22.9248 118.807 22.4169 120.237 22.4169C121.641 22.4169 122.705 22.9248 123.427 23.9408C123.998 24.7478 124.286 25.7459 124.286 26.9311ZM122.221 26.3836C122.235 25.7578 122.094 25.2171 121.801 24.7606C121.426 24.1735 120.85 23.8804 120.075 23.8804C119.367 23.8804 118.792 24.1665 118.352 24.7408C117.991 25.1973 117.777 25.7449 117.711 26.3826H122.221V26.3836Z" fill="white"/>
<path d="M50.0405 10.8475C50.0405 12.013 49.682 12.8903 48.966 13.4794C48.3028 14.0231 47.3604 14.2954 46.1396 14.2954C45.5344 14.2954 45.0164 14.2696 44.5828 14.2181V7.85024C45.1484 7.76112 45.7578 7.71558 46.4159 7.71558C47.5787 7.71558 48.4552 7.96213 49.0462 8.45524C49.7084 9.01272 50.0405 9.80982 50.0405 10.8475ZM48.9183 10.8762C48.9183 10.1207 48.7131 9.54148 48.3028 9.13748C47.8925 8.73448 47.2933 8.53248 46.5042 8.53248C46.1691 8.53248 45.8837 8.55426 45.6471 8.59981V13.4408C45.7781 13.4606 46.0178 13.4695 46.3661 13.4695C47.1806 13.4695 47.8093 13.2487 48.252 12.8071C48.6948 12.3655 48.9183 11.7219 48.9183 10.8762Z" fill="white"/>
<path d="M55.9907 11.8652C55.9907 12.583 55.7804 13.1712 55.36 13.6326C54.9192 14.1069 54.3353 14.3436 53.6061 14.3436C52.9033 14.3436 52.3437 14.1168 51.9263 13.6614C51.51 13.2069 51.3018 12.6335 51.3018 11.9424C51.3018 11.2196 51.516 10.6264 51.9466 10.166C52.3773 9.70557 52.9561 9.47485 53.6853 9.47485C54.3881 9.47485 54.9528 9.70161 55.3803 10.1561C55.7865 10.5977 55.9907 11.1681 55.9907 11.8652ZM54.8867 11.8988C54.8867 11.4681 54.7913 11.0988 54.6014 10.7908C54.3779 10.4185 54.0601 10.2323 53.6467 10.2323C53.2192 10.2323 52.8942 10.4185 52.6708 10.7908C52.4798 11.0988 52.3854 11.474 52.3854 11.9176C52.3854 12.3484 52.4808 12.7177 52.6708 13.0257C52.9013 13.398 53.2222 13.5841 53.6366 13.5841C54.0428 13.5841 54.3617 13.395 54.5912 13.0158C54.7882 12.7019 54.8867 12.3296 54.8867 11.8988Z" fill="white"/>
<path d="M63.9696 9.57019L62.4716 14.2379H61.4967L60.8761 12.211C60.7187 11.705 60.5908 11.202 60.4912 10.703H60.4719C60.3795 11.2159 60.2516 11.7179 60.087 12.211L59.4279 14.2379H58.4418L57.0332 9.57019H58.127L58.6683 11.7892C58.7993 12.314 58.9069 12.814 58.9933 13.2873H59.0126C59.0918 12.8972 59.2228 12.4001 59.4076 11.7991L60.087 9.57118H60.9543L61.6053 11.7516C61.7627 12.2833 61.8907 12.7952 61.9892 13.2883H62.0187C62.0908 12.8081 62.1994 12.2962 62.3436 11.7516L62.9246 9.57118H63.9696V9.57019Z" fill="white"/>
<path d="M69.4871 14.2376H68.4228V11.5641C68.4228 10.7402 68.1019 10.3283 67.458 10.3283C67.1422 10.3283 66.8873 10.4412 66.6892 10.6679C66.4932 10.8947 66.3937 11.162 66.3937 11.468V14.2366H65.3294V10.9036C65.3294 10.4937 65.3162 10.0491 65.2908 9.56785H66.2261L66.2759 10.2976H66.3053C66.4292 10.0709 66.6141 9.88372 66.8568 9.7342C67.1452 9.55993 67.4682 9.4718 67.8216 9.4718C68.2684 9.4718 68.6401 9.61241 68.9357 9.89461C69.3033 10.2402 69.4871 10.7561 69.4871 11.4413V14.2376Z" fill="white"/>
<path d="M72.4227 14.2379H71.3594V7.42834H72.4227V14.2379Z" fill="white"/>
<path d="M78.6887 11.8652C78.6887 12.583 78.4784 13.1712 78.058 13.6326C77.6172 14.1069 77.0323 14.3436 76.3041 14.3436C75.6003 14.3436 75.0407 14.1168 74.6243 13.6614C74.2079 13.2069 73.9998 12.6335 73.9998 11.9424C73.9998 11.2196 74.214 10.6264 74.6446 10.166C75.0753 9.70557 75.6541 9.47485 76.3823 9.47485C77.0861 9.47485 77.6497 9.70161 78.0783 10.1561C78.4845 10.5977 78.6887 11.1681 78.6887 11.8652ZM77.5837 11.8988C77.5837 11.4681 77.4883 11.0988 77.2983 10.7908C77.0759 10.4185 76.757 10.2323 76.3447 10.2323C75.9161 10.2323 75.5912 10.4185 75.3688 10.7908C75.1778 11.0988 75.0834 11.474 75.0834 11.9176C75.0834 12.3484 75.1788 12.7177 75.3688 13.0257C75.5993 13.398 75.9202 13.5841 76.3346 13.5841C76.7408 13.5841 77.0587 13.395 77.2882 13.0158C77.4862 12.7019 77.5837 12.3296 77.5837 11.8988Z" fill="white"/>
<path d="M83.8395 14.2376H82.8838L82.8046 13.7H82.7751C82.4481 14.1287 81.982 14.3436 81.3767 14.3436C80.9248 14.3436 80.5592 14.202 80.2839 13.9208C80.0341 13.6653 79.9092 13.3475 79.9092 12.9702C79.9092 12.3999 80.1529 11.9652 80.6434 11.6642C81.1329 11.3631 81.8215 11.2156 82.7081 11.2225V11.1354C82.7081 10.5205 82.377 10.2135 81.7139 10.2135C81.2416 10.2135 80.8252 10.3294 80.4657 10.5591L80.2494 9.87786C80.6942 9.60952 81.2436 9.47485 81.8916 9.47485C83.1428 9.47485 83.7704 10.1185 83.7704 11.4057V13.1247C83.7704 13.5911 83.7938 13.9624 83.8395 14.2376ZM82.7345 12.6335V11.9137C81.5605 11.8939 80.9735 12.2078 80.9735 12.8544C80.9735 13.0979 81.0405 13.2801 81.1776 13.4019C81.3147 13.5237 81.4894 13.5841 81.6976 13.5841C81.9312 13.5841 82.1495 13.5118 82.3486 13.3683C82.5487 13.2237 82.6715 13.0405 82.7172 12.8157C82.7284 12.7652 82.7345 12.7038 82.7345 12.6335Z" fill="white"/>
<path d="M89.8875 14.2379H88.943L88.8932 13.4883H88.8638C88.5621 14.0586 88.0483 14.3438 87.3262 14.3438C86.7493 14.3438 86.269 14.123 85.8881 13.6814C85.5073 13.2397 85.3174 12.6664 85.3174 11.9624C85.3174 11.2069 85.5235 10.595 85.9379 10.1276C86.3391 9.69191 86.8306 9.47407 87.4156 9.47407C88.0584 9.47407 88.5083 9.68498 88.7642 10.1078H88.7845V7.42834H89.8499V12.9803C89.8499 13.4348 89.8621 13.8537 89.8875 14.2379ZM88.7845 12.2694V11.4911C88.7845 11.3564 88.7744 11.2475 88.7551 11.1643C88.6952 10.9148 88.5662 10.7049 88.3702 10.5355C88.1722 10.3662 87.9335 10.2811 87.6583 10.2811C87.2612 10.2811 86.9504 10.4345 86.7219 10.7425C86.4954 11.0504 86.3807 11.4435 86.3807 11.9238C86.3807 12.3852 86.4894 12.7595 86.7077 13.0476C86.9382 13.3546 87.249 13.5081 87.638 13.5081C87.9873 13.5081 88.2666 13.3804 88.4789 13.1239C88.684 12.8872 88.7845 12.6021 88.7845 12.2694Z" fill="white"/>
<path d="M98.9897 11.8652C98.9897 12.583 98.7795 13.1712 98.359 13.6326C97.9183 14.1069 97.3353 14.3436 96.6051 14.3436C95.9034 14.3436 95.3438 14.1168 94.9254 13.6614C94.509 13.2069 94.3008 12.6335 94.3008 11.9424C94.3008 11.2196 94.5151 10.6264 94.9457 10.166C95.3763 9.70557 95.9552 9.47485 96.6853 9.47485C97.3871 9.47485 97.9528 9.70161 98.3793 10.1561C98.7856 10.5977 98.9897 11.1681 98.9897 11.8652ZM97.8868 11.8988C97.8868 11.4681 97.7913 11.0988 97.6014 10.7908C97.377 10.4185 97.0601 10.2323 96.6457 10.2323C96.2192 10.2323 95.8942 10.4185 95.6698 10.7908C95.4788 11.0988 95.3844 11.474 95.3844 11.9176C95.3844 12.3484 95.4799 12.7177 95.6698 13.0257C95.9003 13.398 96.2212 13.5841 96.6356 13.5841C97.0418 13.5841 97.3617 13.395 97.5912 13.0158C97.7873 12.7019 97.8868 12.3296 97.8868 11.8988Z" fill="white"/>
<path d="M104.712 14.2376H103.649V11.5641C103.649 10.7402 103.328 10.3283 102.683 10.3283C102.367 10.3283 102.112 10.4412 101.915 10.6679C101.718 10.8947 101.62 11.162 101.62 11.468V14.2366H100.554V10.9036C100.554 10.4937 100.542 10.0491 100.517 9.56785H101.451L101.501 10.2976H101.53C101.655 10.0709 101.84 9.88372 102.082 9.7342C102.371 9.55993 102.693 9.4718 103.048 9.4718C103.493 9.4718 103.865 9.61241 104.161 9.89461C104.529 10.2402 104.712 10.7561 104.712 11.4413V14.2376Z" fill="white"/>
<path d="M111.876 10.3474H110.704V12.6149C110.704 13.1912 110.912 13.4793 111.324 13.4793C111.515 13.4793 111.674 13.4635 111.798 13.4308L111.826 14.218C111.616 14.2952 111.339 14.3339 110.999 14.3339C110.579 14.3339 110.252 14.2091 110.015 13.9596C109.777 13.71 109.66 13.2902 109.66 12.701V10.3474H108.96V9.57007H109.66V8.71455L110.703 8.40759V9.56908H111.875V10.3474H111.876Z" fill="white"/>
<path d="M117.51 14.2379H116.445V11.5842C116.445 10.7474 116.124 10.3286 115.481 10.3286C114.988 10.3286 114.65 10.5712 114.466 11.0564C114.434 11.1584 114.416 11.2831 114.416 11.4297V14.2369H113.353V7.42834H114.416V10.2415H114.436C114.771 9.72954 115.252 9.47407 115.874 9.47407C116.315 9.47407 116.68 9.61467 116.969 9.89688C117.33 10.2484 117.51 10.7712 117.51 11.4624V14.2379Z" fill="white"/>
<path d="M123.322 11.6832C123.322 11.8694 123.307 12.0258 123.282 12.1536H120.09C120.104 12.615 120.257 12.9665 120.552 13.2101C120.822 13.4279 121.171 13.5368 121.597 13.5368C122.07 13.5368 122.5 13.4636 122.888 13.316L123.055 14.0369C122.601 14.229 122.066 14.325 121.448 14.325C120.707 14.325 120.123 14.1121 119.7 13.6864C119.276 13.2606 119.065 12.6892 119.065 11.9723C119.065 11.2683 119.261 10.6821 119.656 10.2148C120.069 9.71571 120.626 9.46619 121.33 9.46619C122.019 9.46619 122.542 9.71571 122.895 10.2148C123.181 10.6108 123.322 11.101 123.322 11.6832ZM122.306 11.4149C122.314 11.1069 122.244 10.8416 122.1 10.6178C121.915 10.3296 121.634 10.1851 121.253 10.1851C120.906 10.1851 120.622 10.3257 120.406 10.6079C120.229 10.8326 120.125 11.101 120.09 11.4149H122.306Z" fill="white"/>
</svg>
