<svg width="48" height="47" viewBox="0 0 48 47" fill="none" xmlns="http://www.w3.org/2000/svg">
<path fill-rule="evenodd" clip-rule="evenodd" d="M24.1106 45.5601C33.831 45.5601 39.2347 45.5601 42.7641 42.0307C46.2935 38.5013 46.2935 33.0976 46.2935 23.3772C46.2935 13.6568 46.2935 8.25309 42.7641 4.72371C39.2347 1.19434 33.831 1.19434 24.1106 1.19434C14.3902 1.19434 8.98649 1.19434 5.45711 4.72371C1.92773 8.25309 1.92773 13.6568 1.92773 23.3772C1.92773 33.0976 1.92773 38.5013 5.45711 42.0307C8.98649 45.5601 14.3902 45.5601 24.1106 45.5601Z" stroke="white" stroke-width="2"/>
<path d="M35.2022 16.4439C34.3703 16.8598 33.5385 16.9985 32.568 17.1371C33.5385 16.5825 34.2317 15.7507 34.509 14.6415C33.6771 15.1961 32.7066 15.4734 31.5974 15.7507C30.7656 14.9188 29.5178 14.3643 28.27 14.3643C25.3585 14.3643 23.1402 17.1371 23.8334 19.91C20.0901 19.7713 16.7626 17.969 14.4057 15.1961C13.1579 17.2758 13.8511 19.91 15.7921 21.2964C15.0989 21.2964 14.4057 21.0191 13.7125 20.7418C13.7125 22.8215 15.2376 24.7625 17.3172 25.3171C16.624 25.4557 15.9308 25.5943 15.2376 25.4557C15.7921 27.2581 17.4559 28.6445 19.5355 28.6445C17.8718 29.8923 15.3762 30.5855 13.0193 30.3082C15.0989 31.556 17.4559 32.3878 19.9514 32.3878C28.4087 32.3878 33.1225 25.3171 32.8452 18.8008C33.8157 18.2463 34.6476 17.4144 35.2022 16.4439Z" fill="white"/>
</svg>
