<svg width="47" height="47" viewBox="0 0 47 47" fill="none" xmlns="http://www.w3.org/2000/svg">
<path fill-rule="evenodd" clip-rule="evenodd" d="M23.4248 45.5601C33.1452 45.5601 38.549 45.5601 42.0783 42.0307C45.6077 38.5013 45.6077 33.0976 45.6077 23.3772C45.6077 13.6568 45.6077 8.25309 42.0783 4.72371C38.549 1.19434 33.1452 1.19434 23.4248 1.19434C13.7044 1.19434 8.3007 1.19434 4.77132 4.72371C1.24194 8.25309 1.24194 13.6568 1.24194 23.3772C1.24194 33.0976 1.24194 38.5013 4.77132 42.0307C8.3007 45.5601 13.7044 45.5601 23.4248 45.5601Z" stroke="white" stroke-width="2"/>
<path d="M21.5463 23.0303C20.9141 23.0303 20.415 23.5849 20.415 24.2615C20.415 24.9381 20.9252 25.4926 21.5463 25.4926C22.1786 25.4926 22.6777 24.9381 22.6777 24.2615C22.6888 23.5849 22.1786 23.0303 21.5463 23.0303ZM25.5947 23.0303C24.9625 23.0303 24.4634 23.5849 24.4634 24.2615C24.4634 24.9381 24.9736 25.4926 25.5947 25.4926C26.2269 25.4926 26.726 24.9381 26.726 24.2615C26.726 23.5849 26.2269 23.0303 25.5947 23.0303Z" fill="white"/>
<path d="M30.9852 13.7246H16.1226C14.8693 13.7246 13.8489 14.745 13.8489 16.0094V31.0051C13.8489 32.2695 14.8693 33.2899 16.1226 33.2899H28.7003L28.1125 31.238L29.5322 32.5579L30.8742 33.8001L33.2589 35.9075V16.0094C33.2589 14.745 32.2385 13.7246 30.9852 13.7246ZM26.7039 28.21C26.7039 28.21 26.3046 27.7331 25.9718 27.3116C27.4248 26.9012 27.9794 25.9917 27.9794 25.9917C27.5246 26.2912 27.0921 26.5019 26.7039 26.6461C26.1493 26.8791 25.6169 27.0343 25.0956 27.1231C24.0308 27.3227 23.0548 27.2673 22.2229 27.112C21.5907 26.99 21.0472 26.8125 20.5925 26.635C20.3374 26.5352 20.0601 26.4132 19.7828 26.2579C19.7495 26.2358 19.7162 26.2247 19.683 26.2025C19.6608 26.1914 19.6497 26.1803 19.6386 26.1692C19.439 26.0583 19.328 25.9807 19.328 25.9807C19.328 25.9807 19.8604 26.868 21.2691 27.2894C20.9363 27.7109 20.5259 28.21 20.5259 28.21C18.0747 28.1324 17.143 26.5241 17.143 26.5241C17.143 22.9527 18.7402 20.0578 18.7402 20.0578C20.3374 18.8599 21.8569 18.8932 21.8569 18.8932L21.9678 19.0263C19.9714 19.6031 19.0508 20.4793 19.0508 20.4793C19.0508 20.4793 19.2948 20.3462 19.7052 20.1576C20.8919 19.6363 21.8347 19.4922 22.2229 19.4589C22.2895 19.4478 22.3449 19.4367 22.4115 19.4367C23.088 19.348 23.8534 19.3258 24.6519 19.4145C25.7056 19.5365 26.837 19.8471 27.9905 20.4793C27.9905 20.4793 27.1142 19.6474 25.2287 19.0707L25.384 18.8932C25.384 18.8932 26.9035 18.8599 28.5007 20.0578C28.5007 20.0578 30.0978 22.9527 30.0978 26.5241C30.0978 26.5241 29.1551 28.1324 26.7039 28.21Z" fill="white"/>
</svg>
