<svg width="47" height="47" viewBox="0 0 47 47" fill="none" xmlns="http://www.w3.org/2000/svg">
<path fill-rule="evenodd" clip-rule="evenodd" d="M23.7676 45.5601C33.488 45.5601 38.8917 45.5601 42.4211 42.0307C45.9505 38.5013 45.9505 33.0976 45.9505 23.3772C45.9505 13.6568 45.9505 8.25309 42.4211 4.72371C38.8917 1.19434 33.488 1.19434 23.7676 1.19434C14.0472 1.19434 8.64347 1.19434 5.11409 4.72371C1.58472 8.25309 1.58472 13.6568 1.58472 23.3772C1.58472 33.0976 1.58472 38.5013 5.11409 42.0307C8.64347 45.5601 14.0472 45.5601 23.7676 45.5601Z" stroke="white" stroke-width="2"/>
<path d="M12.7122 23.0255C18.6669 20.4311 22.6376 18.7208 24.6243 17.8944C30.2969 15.535 31.4756 15.1251 32.2439 15.1115C32.4129 15.1086 32.7907 15.1505 33.0354 15.3491C33.2421 15.5168 33.2989 15.7433 33.3261 15.9023C33.3533 16.0612 33.3872 16.4234 33.3603 16.7064C33.0529 19.9362 31.7228 27.7743 31.0461 31.3918C30.7597 32.9225 30.196 33.4357 29.6501 33.486C28.4639 33.5951 27.5632 32.702 26.4143 31.9489C24.6166 30.7705 23.6009 30.0369 21.8559 28.8869C19.8392 27.5579 21.1465 26.8275 22.2958 25.6338C22.5966 25.3214 27.823 20.5676 27.9241 20.1363C27.9368 20.0824 27.9485 19.8813 27.8291 19.7752C27.7097 19.669 27.5334 19.7053 27.4062 19.7342C27.2259 19.7751 24.3539 21.6734 18.7903 25.429C17.9751 25.9888 17.2367 26.2615 16.5751 26.2472C15.8458 26.2315 14.4429 25.8349 13.4 25.4958C12.1208 25.08 11.1041 24.8602 11.1926 24.154C11.2387 23.7862 11.7453 23.41 12.7122 23.0255Z" fill="white"/>
</svg>
