<svg width="202" height="205" viewBox="0 0 202 205" fill="none" xmlns="http://www.w3.org/2000/svg">
<path d="M7.30501 186.118H0.0898438V181.866H19.7383V186.118H12.5231V204.414H7.30501V186.118Z" fill="white"/>
<path d="M42.7301 181.866V204.414H37.512V195.169H27.269V204.414H22.0509V181.866H27.269V190.756H37.512V181.866H42.7301Z" fill="white"/>
<path d="M58.4891 204.8C56.1484 204.8 54.0333 204.296 52.1436 203.286C50.2754 202.277 48.8044 200.892 47.7307 199.131C46.6785 197.349 46.1524 195.352 46.1524 193.14C46.1524 190.928 46.6785 188.942 47.7307 187.181C48.8044 185.399 50.2754 184.003 52.1436 182.994C54.0333 181.984 56.1484 181.48 58.4891 181.48C60.8297 181.48 62.9341 181.984 64.8023 182.994C66.6706 184.003 68.1415 185.399 69.2152 187.181C70.2889 188.942 70.8257 190.928 70.8257 193.14C70.8257 195.352 70.2889 197.349 69.2152 199.131C68.1415 200.892 66.6706 202.277 64.8023 203.286C62.9341 204.296 60.8297 204.8 58.4891 204.8ZM58.4891 200.355C59.8204 200.355 61.023 200.055 62.0967 199.453C63.1703 198.831 64.0078 197.972 64.6091 196.876C65.2318 195.781 65.5432 194.536 65.5432 193.14C65.5432 191.744 65.2318 190.499 64.6091 189.404C64.0078 188.308 63.1703 187.46 62.0967 186.859C61.023 186.236 59.8204 185.925 58.4891 185.925C57.1577 185.925 55.9552 186.236 54.8815 186.859C53.8078 187.46 52.9596 188.308 52.3368 189.404C51.7356 190.499 51.435 191.744 51.435 193.14C51.435 194.536 51.7356 195.781 52.3368 196.876C52.9596 197.972 53.8078 198.831 54.8815 199.453C55.9552 200.055 57.1577 200.355 58.4891 200.355Z" fill="white"/>
<path d="M88.6183 204.414L84.2698 198.133H84.0121H79.4705V204.414H74.2523V181.866H84.0121C86.0092 181.866 87.7378 182.199 89.1981 182.865C90.6797 183.53 91.8178 184.475 92.6124 185.699C93.4069 186.923 93.8042 188.373 93.8042 190.048C93.8042 191.723 93.3962 193.172 92.5802 194.396C91.7856 195.599 90.6475 196.522 89.1658 197.166L94.2229 204.414H88.6183ZM88.5216 190.048C88.5216 188.781 88.1136 187.814 87.2976 187.149C86.4816 186.462 85.2898 186.118 83.7223 186.118H79.4705V193.977H83.7223C85.2898 193.977 86.4816 193.634 87.2976 192.947C88.1136 192.26 88.5216 191.293 88.5216 190.048Z" fill="white"/>
<path d="M131.522 181.866L124.146 204.414H118.541L113.581 189.146L108.459 204.414H102.887L95.4786 181.866H100.89L105.979 197.714L111.294 181.866H116.126L121.279 197.843L126.53 181.866H131.522Z" fill="white"/>
<path d="M139.286 186.827C141.97 186.827 144.032 187.471 145.47 188.759C146.909 190.026 147.628 191.948 147.628 194.525V204.414H142.926V202.256C141.981 203.866 140.22 204.671 137.643 204.671C136.312 204.671 135.152 204.446 134.164 203.995C133.198 203.544 132.457 202.921 131.942 202.127C131.427 201.332 131.169 200.43 131.169 199.421C131.169 197.811 131.77 196.544 132.973 195.62C134.197 194.697 136.076 194.235 138.61 194.235H142.604C142.604 193.14 142.271 192.302 141.605 191.723C140.939 191.121 139.941 190.821 138.61 190.821C137.686 190.821 136.774 190.971 135.872 191.272C134.991 191.551 134.24 191.937 133.617 192.431L131.813 188.92C132.758 188.255 133.885 187.739 135.195 187.374C136.527 187.009 137.89 186.827 139.286 186.827ZM138.899 201.289C139.758 201.289 140.521 201.096 141.186 200.709C141.852 200.301 142.324 199.711 142.604 198.938V197.166H139.157C137.096 197.166 136.065 197.843 136.065 199.196C136.065 199.84 136.312 200.355 136.806 200.742C137.321 201.107 138.019 201.289 138.899 201.289Z" fill="white"/>
<path d="M151.681 180.513H156.706V204.414H151.681V180.513Z" fill="white"/>
<path d="M160.875 180.513H165.899V204.414H160.875V180.513Z" fill="white"/>
<path d="M187.043 195.813C187.043 195.878 187.011 196.329 186.946 197.166H173.836C174.073 198.24 174.631 199.088 175.511 199.711C176.392 200.334 177.487 200.645 178.797 200.645C179.699 200.645 180.493 200.516 181.18 200.259C181.889 199.979 182.544 199.55 183.145 198.97L185.819 201.869C184.187 203.737 181.803 204.671 178.668 204.671C176.714 204.671 174.985 204.296 173.482 203.544C171.979 202.771 170.819 201.708 170.003 200.355C169.187 199.002 168.779 197.467 168.779 195.749C168.779 194.053 169.177 192.528 169.971 191.175C170.787 189.801 171.893 188.738 173.289 187.986C174.706 187.213 176.284 186.827 178.024 186.827C179.72 186.827 181.256 187.192 182.63 187.922C184.004 188.652 185.078 189.704 185.851 191.078C186.646 192.431 187.043 194.01 187.043 195.813ZM178.056 190.628C176.918 190.628 175.962 190.95 175.189 191.594C174.416 192.238 173.944 193.118 173.772 194.235H182.308C182.136 193.14 181.664 192.27 180.891 191.626C180.118 190.96 179.173 190.628 178.056 190.628Z" fill="white"/>
<path d="M201.07 203.576C200.576 203.941 199.964 204.22 199.234 204.414C198.526 204.585 197.774 204.671 196.98 204.671C194.918 204.671 193.318 204.145 192.18 203.093C191.063 202.041 190.505 200.495 190.505 198.455V191.336H187.832V187.471H190.505V183.251H195.53V187.471H199.846V191.336H195.53V198.39C195.53 199.12 195.713 199.689 196.078 200.097C196.464 200.484 197.001 200.677 197.688 200.677C198.483 200.677 199.159 200.463 199.717 200.033L201.07 203.576Z" fill="white"/>
<path fill-rule="evenodd" clip-rule="evenodd" d="M107.386 79.3517L71.1185 42.7405L172.169 0.500977L107.387 79.3515L143.654 116.009L29.0107 164.11L107.386 79.3517Z" fill="url(#paint0_linear_663_1501)"/>
<defs>
<linearGradient id="paint0_linear_663_1501" x1="29.0107" y1="164.11" x2="172.169" y2="164.11" gradientUnits="userSpaceOnUse">
<stop stop-color="#00CCFF"/>
<stop offset="1" stop-color="#33FF99"/>
</linearGradient>
</defs>
</svg>
