<svg width="43" height="43" viewBox="0 0 43 43" fill="none" xmlns="http://www.w3.org/2000/svg">
<path fill-rule="evenodd" clip-rule="evenodd" d="M21.9277 41.8027C30.6916 41.8027 35.5636 41.8027 38.7457 38.6207C41.9277 35.4386 41.9277 30.5666 41.9277 21.8027C41.9277 13.0388 41.9277 8.16688 38.7457 4.9848C35.5636 1.80273 30.6916 1.80273 21.9277 1.80273C13.1638 1.80273 8.29188 1.80273 5.1098 4.9848C1.92773 8.16688 1.92773 13.0388 1.92773 21.8027C1.92773 30.5666 1.92773 35.4386 5.1098 38.6207C8.29188 41.8027 13.1638 41.8027 21.9277 41.8027Z" stroke="white" stroke-width="2"/>
<path d="M32.0709 19.1174C32.2315 18.9897 32.4704 19.1091 32.4704 19.3109V27.7326C32.4704 28.824 31.585 29.7094 30.4937 29.7094H13.362C12.2707 29.7094 11.3853 28.824 11.3853 27.7326V19.315C11.3853 19.1091 11.62 18.9938 11.7847 19.1215C12.7072 19.8381 13.9303 20.7482 18.1309 23.7998C18.9998 24.434 20.4659 25.7683 21.9278 25.76C23.398 25.7724 24.8929 24.4093 25.7289 23.7998C29.9295 20.7482 31.1485 19.8339 32.0709 19.1174ZM21.9278 24.4381C22.8832 24.4546 24.2587 23.2356 24.9506 22.7331C30.4154 18.7673 30.8314 18.4214 32.0915 17.433C32.3304 17.2477 32.4704 16.9594 32.4704 16.6547V15.8722C32.4704 14.7809 31.585 13.8955 30.4937 13.8955H13.362C12.2707 13.8955 11.3853 14.7809 11.3853 15.8722V16.6547C11.3853 16.9594 11.5253 17.2436 11.7641 17.433C13.0243 18.4173 13.4402 18.7673 18.9051 22.7331C19.5969 23.2356 20.9724 24.4546 21.9278 24.4381Z" fill="white"/>
</svg>
