<svg width="43" height="43" viewBox="0 0 43 43" fill="none" xmlns="http://www.w3.org/2000/svg">
<path fill-rule="evenodd" clip-rule="evenodd" d="M21.9277 41.8027C30.6916 41.8027 35.5636 41.8027 38.7457 38.6207C41.9277 35.4386 41.9277 30.5666 41.9277 21.8027C41.9277 13.0388 41.9277 8.16688 38.7457 4.9848C35.5636 1.80273 30.6916 1.80273 21.9277 1.80273C13.1638 1.80273 8.29188 1.80273 5.1098 4.9848C1.92773 8.16688 1.92773 13.0388 1.92773 21.8027C1.92773 30.5666 1.92773 35.4386 5.1098 38.6207C8.29188 41.8027 13.1638 41.8027 21.9277 41.8027Z" stroke="white" stroke-width="2"/>
<path d="M14.105 16.8699C14.105 16.6237 13.9819 16.3775 13.8588 16.2543L12.0121 14.0383V13.6689H17.6754L22.1075 23.395L26.0471 13.6689H31.4641V14.0383L29.8637 15.5157C29.7405 15.6388 29.6174 15.7619 29.7405 16.0081V27.0884C29.7405 27.2115 29.7405 27.4577 29.8637 27.5809L31.341 29.0582V29.4276H23.5848V29.0582L25.1853 27.4577C25.3084 27.3346 25.3084 27.2115 25.3084 26.9653V17.9779L20.8763 29.1813H20.3839L15.2131 17.9779V25.4879C15.2131 25.8573 15.3362 26.1035 15.4593 26.3497L17.5522 28.812V29.1813H11.7659V28.812L13.8588 26.3497C14.105 26.1035 14.2282 25.8573 14.105 25.4879V16.8699Z" fill="white"/>
</svg>
