<svg width="93" height="93" viewBox="0 0 93 93" fill="none" xmlns="http://www.w3.org/2000/svg">
<path fill-rule="evenodd" clip-rule="evenodd" d="M46.2324 91.3394C65.9512 91.3394 76.9131 91.3394 84.0728 84.1797C91.2324 77.02 91.2324 66.0581 91.2324 46.3394C91.2324 26.6206 91.2324 15.6587 84.0728 8.49901C76.9131 1.33936 65.9512 1.33936 46.2324 1.33936C26.5137 1.33936 15.5518 1.33936 8.39208 8.49901C1.23242 15.6587 1.23242 26.6206 1.23242 46.3394C1.23242 66.0581 1.23242 77.02 8.39208 84.1797C15.5518 91.3394 26.5137 91.3394 46.2324 91.3394Z" stroke="black" stroke-width="2"/>
<path d="M47.168 22.3382L61.6462 46.3617L47.168 54.9199V22.3382Z" fill="black" stroke="black" stroke-width="2"/>
<path d="M45.5274 54.7066L31.4093 46.3615L45.5274 22.9361V39.2115V54.7066Z" fill="black" stroke="black" stroke-width="2"/>
<path d="M47.3242 60.2731L59.5006 53.0837L47.3242 70.2321V60.2731Z" fill="black" stroke="black" stroke-width="2"/>
<path d="M33.5629 53.0845L45.5274 60.153V69.9444L33.5629 53.0845Z" fill="black" stroke="black" stroke-width="2"/>
<path d="M47.5273 40.7647L60.8607 46.8253L47.5273 54.7067V40.7647Z" stroke="black" stroke-width="2"/>
<path d="M45.5274 40.7647V54.7068L32.1937 46.8253L45.5274 40.7647Z" stroke="black" stroke-width="2"/>
</svg>
