<svg width="93" height="93" viewBox="0 0 93 93" fill="none" xmlns="http://www.w3.org/2000/svg">
<path fill-rule="evenodd" clip-rule="evenodd" d="M46.793 91.6982C66.5117 91.6982 77.4736 91.6982 84.6333 84.5386C91.793 77.3789 91.793 66.417 91.793 46.6982C91.793 26.9795 91.793 16.0176 84.6333 8.8579C77.4736 1.69824 66.5117 1.69824 46.793 1.69824C27.0742 1.69824 16.1123 1.69824 8.95263 8.8579C1.79297 16.0176 1.79297 26.9795 1.79297 46.6982C1.79297 66.417 1.79297 77.3789 8.95263 84.5386C16.1123 91.6982 27.0742 91.6982 46.793 91.6982Z" stroke="black" stroke-width="2"/>
<path d="M42.9822 45.9947C41.6997 45.9947 40.6872 47.1197 40.6872 48.4922C40.6872 49.8647 41.7222 50.9897 42.9822 50.9897C44.2647 50.9897 45.2772 49.8647 45.2772 48.4922C45.2997 47.1197 44.2647 45.9947 42.9822 45.9947ZM51.1947 45.9947C49.9122 45.9947 48.8997 47.1197 48.8997 48.4922C48.8997 49.8647 49.9347 50.9897 51.1947 50.9897C52.4772 50.9897 53.4897 49.8647 53.4897 48.4922C53.4897 47.1197 52.4772 45.9947 51.1947 45.9947Z" fill="#131619"/>
<path d="M62.1297 27.1172H31.9797C29.4372 27.1172 27.3672 29.1872 27.3672 31.7522V62.1722C27.3672 64.7372 29.4372 66.8072 31.9797 66.8072H57.4947L56.3022 62.6447L59.1822 65.3222L61.9047 67.8422L66.7422 72.1172V31.7522C66.7422 29.1872 64.6722 27.1172 62.1297 27.1172ZM53.4447 56.5022C53.4447 56.5022 52.6347 55.5347 51.9597 54.6797C54.9072 53.8472 56.0322 52.0022 56.0322 52.0022C55.1097 52.6097 54.2322 53.0372 53.4447 53.3297C52.3197 53.8022 51.2397 54.1172 50.1822 54.2972C48.0222 54.7022 46.0422 54.5897 44.3547 54.2747C43.0722 54.0272 41.9697 53.6672 41.0472 53.3072C40.5297 53.1047 39.9672 52.8572 39.4047 52.5422C39.3372 52.4972 39.2697 52.4747 39.2022 52.4297C39.1572 52.4072 39.1347 52.3847 39.1122 52.3622C38.7072 52.1372 38.4822 51.9797 38.4822 51.9797C38.4822 51.9797 39.5622 53.7797 42.4197 54.6347C41.7447 55.4897 40.9122 56.5022 40.9122 56.5022C35.9397 56.3447 34.0497 53.0822 34.0497 53.0822C34.0497 45.8372 37.2897 39.9647 37.2897 39.9647C40.5297 37.5347 43.6122 37.6022 43.6122 37.6022L43.8372 37.8722C39.7872 39.0422 37.9197 40.8197 37.9197 40.8197C37.9197 40.8197 38.4147 40.5497 39.2472 40.1672C41.6547 39.1097 43.5672 38.8172 44.3547 38.7497C44.4897 38.7272 44.6022 38.7047 44.7372 38.7047C46.1097 38.5247 47.6622 38.4797 49.2822 38.6597C51.4197 38.9072 53.7147 39.5372 56.0547 40.8197C56.0547 40.8197 54.2772 39.1322 50.4522 37.9622L50.7672 37.6022C50.7672 37.6022 53.8497 37.5347 57.0897 39.9647C57.0897 39.9647 60.3297 45.8372 60.3297 53.0822C60.3297 53.0822 58.4172 56.3447 53.4447 56.5022Z" fill="#131619"/>
</svg>
