<svg width="93" height="93" viewBox="0 0 93 93" fill="none" xmlns="http://www.w3.org/2000/svg">
<path fill-rule="evenodd" clip-rule="evenodd" d="M46.793 91.6982C66.5117 91.6982 77.4736 91.6982 84.6333 84.5386C91.793 77.3789 91.793 66.417 91.793 46.6982C91.793 26.9795 91.793 16.0176 84.6333 8.8579C77.4736 1.69824 66.5117 1.69824 46.793 1.69824C27.0742 1.69824 16.1123 1.69824 8.95263 8.8579C1.79297 16.0176 1.79297 26.9795 1.79297 46.6982C1.79297 66.417 1.79297 77.3789 8.95263 84.5386C16.1123 91.6982 27.0742 91.6982 46.793 91.6982Z" stroke="black" stroke-width="2"/>
<path d="M69.6153 40.6574C69.9766 40.3702 70.5141 40.6389 70.5141 41.0929V60.0417C70.5141 62.4972 68.5219 64.4894 66.0664 64.4894H27.5202C25.0647 64.4894 23.0725 62.4972 23.0725 60.0417V41.1022C23.0725 40.6389 23.6007 40.3794 23.9713 40.6667C26.0469 42.2789 28.7989 44.3267 38.2501 51.1928C40.2052 52.6197 43.5039 55.6219 46.7933 55.6033C50.1012 55.6311 53.4648 52.5641 55.3457 51.1928C64.797 44.3267 67.5397 42.2697 69.6153 40.6574ZM46.7933 52.629C48.943 52.666 52.0378 49.9233 53.5945 48.7929C65.8904 39.8698 66.8262 39.0915 69.6616 36.8676C70.199 36.4507 70.5141 35.8021 70.5141 35.1164V33.3558C70.5141 30.9004 68.5219 28.9082 66.0664 28.9082H27.5202C25.0647 28.9082 23.0725 30.9004 23.0725 33.3558V35.1164C23.0725 35.8021 23.3876 36.4414 23.925 36.8676C26.7603 39.0822 27.6962 39.8698 39.9921 48.7929C41.5488 49.9233 44.6436 52.666 46.7933 52.629Z" fill="#131619"/>
</svg>
