<svg width="93" height="93" viewBox="0 0 93 93" fill="none" xmlns="http://www.w3.org/2000/svg">
<path fill-rule="evenodd" clip-rule="evenodd" d="M46.793 91.6982C66.5117 91.6982 77.4736 91.6982 84.6333 84.5386C91.793 77.3789 91.793 66.417 91.793 46.6982C91.793 26.9795 91.793 16.0176 84.6333 8.8579C77.4736 1.69824 66.5117 1.69824 46.793 1.69824C27.0742 1.69824 16.1123 1.69824 8.95263 8.8579C1.79297 16.0176 1.79297 26.9795 1.79297 46.6982C1.79297 66.417 1.79297 77.3789 8.95263 84.5386C16.1123 91.6982 27.0742 91.6982 46.793 91.6982Z" stroke="black" stroke-width="2"/>
<path d="M69.293 32.6348C67.6055 33.4785 65.918 33.7598 63.9492 34.041C65.918 32.916 67.3242 31.2285 67.8867 28.9785C66.1992 30.1035 64.2305 30.666 61.9805 31.2285C60.293 29.541 57.7617 28.416 55.2305 28.416C49.3242 28.416 44.8242 34.041 46.2305 39.666C38.6367 39.3848 31.8867 35.7285 27.1055 30.1035C24.5742 34.3223 25.9805 39.666 29.918 42.4785C28.5117 42.4785 27.1055 41.916 25.6992 41.3535C25.6992 45.5723 28.793 49.5098 33.0117 50.6348C31.6055 50.916 30.1992 51.1973 28.793 50.916C29.918 54.5723 33.293 57.3848 37.5117 57.3848C34.1367 59.916 29.0742 61.3223 24.293 60.7598C28.5117 63.291 33.293 64.9785 38.3555 64.9785C55.5117 64.9785 65.0742 50.6348 64.5117 37.416C66.4805 36.291 68.168 34.6035 69.293 32.6348Z" fill="#131619"/>
</svg>
