<svg width="93" height="93" viewBox="0 0 93 93" fill="none" xmlns="http://www.w3.org/2000/svg">
<path fill-rule="evenodd" clip-rule="evenodd" d="M46.793 91.6982C66.5117 91.6982 77.4736 91.6982 84.6333 84.5386C91.793 77.3789 91.793 66.417 91.793 46.6982C91.793 26.9795 91.793 16.0176 84.6333 8.8579C77.4736 1.69824 66.5117 1.69824 46.793 1.69824C27.0742 1.69824 16.1123 1.69824 8.95263 8.8579C1.79297 16.0176 1.79297 26.9795 1.79297 46.6982C1.79297 66.417 1.79297 77.3789 8.95263 84.5386C16.1123 91.6982 27.0742 91.6982 46.793 91.6982Z" stroke="black" stroke-width="2"/>
<path d="M29.1916 35.6006C29.1916 35.0466 28.9146 34.4926 28.6376 34.2156L24.4825 29.2295V28.3984H37.2248L47.1971 50.282L56.0613 28.3984H68.2496V29.2295L64.6485 32.5535C64.3715 32.8305 64.0945 33.1076 64.3715 33.6616V58.5922C64.3715 58.8692 64.3715 59.4232 64.6485 59.7002L67.9726 63.0243V63.8553H50.5211V63.0243L54.1222 59.4232C54.3992 59.1462 54.3992 58.8692 54.3992 58.3152V38.0937L44.427 63.3013H43.319L31.6847 38.0937V54.9911C31.6847 55.8221 31.9617 56.3761 32.2387 56.9302L36.9478 62.4703V63.3013H23.9285V62.4703L28.6376 56.9302C29.1916 56.3761 29.4686 55.8221 29.1916 54.9911V35.6006Z" fill="black"/>
</svg>
