<svg width="93" height="93" viewBox="0 0 93 93" fill="none" xmlns="http://www.w3.org/2000/svg">
<path fill-rule="evenodd" clip-rule="evenodd" d="M46.793 91.6982C66.5117 91.6982 77.4736 91.6982 84.6333 84.5386C91.793 77.3789 91.793 66.417 91.793 46.6982C91.793 26.9795 91.793 16.0176 84.6333 8.8579C77.4736 1.69824 66.5117 1.69824 46.793 1.69824C27.0742 1.69824 16.1123 1.69824 8.95263 8.8579C1.79297 16.0176 1.79297 26.9795 1.79297 46.6982C1.79297 66.417 1.79297 77.3789 8.95263 84.5386C16.1123 91.6982 27.0742 91.6982 46.793 91.6982Z" stroke="black" stroke-width="2"/>
<path d="M24.366 45.9843C36.4455 40.7214 44.5005 37.2518 48.5308 35.5754C60.0381 30.7891 62.4293 29.9577 63.9878 29.93C64.3305 29.9242 65.097 30.0092 65.5934 30.412C66.0126 30.7522 66.128 31.2117 66.1832 31.5342C66.2384 31.8567 66.3071 32.5913 66.2525 33.1654C65.6289 39.7175 62.9306 55.6176 61.5579 62.9561C60.9771 66.0612 59.8333 67.1024 58.7261 67.2043C56.3198 67.4257 54.4926 65.614 52.162 64.0863C48.515 61.6957 46.4547 60.2075 42.9147 57.8747C38.8237 55.1787 41.4757 53.697 43.8072 51.2754C44.4174 50.6417 55.0196 40.9982 55.2248 40.1234C55.2504 40.0139 55.2743 39.6061 55.032 39.3908C54.7897 39.1754 54.4321 39.2491 54.174 39.3076C53.8083 39.3906 47.9822 43.2414 36.6959 50.86C35.0422 51.9956 33.5443 52.5489 32.2023 52.5199C30.7228 52.4879 27.8768 51.6833 25.7612 50.9956C23.1662 50.1521 21.1038 49.7061 21.2834 48.2736C21.3769 47.5274 22.4044 46.7643 24.366 45.9843Z" fill="#131619"/>
</svg>
