<svg width="31" height="28" viewBox="0 0 31 28" fill="none" xmlns="http://www.w3.org/2000/svg">
<path fill-rule="evenodd" clip-rule="evenodd" d="M30.5684 19.8187V18.2512C30.5684 18.1061 30.4284 18.0011 30.2909 18.0411L22.8883 20.1812C22.8483 20.1912 22.8134 20.2137 22.7859 20.2437C21.9938 21.1186 21.3204 21.7061 21.1412 21.8625L21.1284 21.8737C20.6684 22.2636 20.0984 22.4762 19.4984 22.4762H16.8184V19.7437H18.9483C19.0033 19.7437 19.0558 19.7236 19.0958 19.6887L19.3709 19.4361C19.4884 19.3286 19.6284 19.1986 19.7958 19.0311C19.8096 19.0173 19.8236 19.0034 19.8378 18.9893C19.9262 18.9012 20.0207 18.8071 20.1133 18.7037C20.2233 18.5962 20.3308 18.4762 20.4309 18.3587C20.5983 18.1787 20.7583 17.9911 20.9259 17.7937C21.0458 17.6637 21.1558 17.5161 21.2633 17.3686C21.3834 17.2286 21.5009 17.0712 21.6109 16.9212C21.6517 16.8612 21.6952 16.8005 21.7396 16.7385C21.7821 16.6791 21.8256 16.6185 21.8684 16.5561C21.9483 16.4361 22.0284 16.3086 22.0958 16.1886C22.3059 15.8637 22.4833 15.5161 22.6333 15.1687C22.7022 15.0198 22.7573 14.863 22.8108 14.7106C22.8175 14.6916 22.8242 14.6726 22.8309 14.6537C22.8908 14.4761 22.9409 14.3087 22.9783 14.1311C23.0684 13.7136 23.0884 13.2986 23.0484 12.8837C23.0384 12.7537 23.0283 12.6262 22.9983 12.5061V12.4862C22.9883 12.4012 22.9684 12.3062 22.9409 12.2187C22.8509 11.8137 22.7108 11.4086 22.5334 11.0112C22.4733 10.8636 22.4034 10.7136 22.3359 10.5761C22.1759 10.2787 22.0084 9.98116 21.8183 9.69365C21.7802 9.63294 21.7381 9.57143 21.6961 9.51003C21.6637 9.46271 21.6313 9.41546 21.6009 9.36867C21.4807 9.18338 21.3457 9.00477 21.2147 8.83145C21.1848 8.79192 21.1551 8.75267 21.1259 8.71368C21.0482 8.6117 20.9631 8.50972 20.8776 8.40706C20.831 8.35116 20.7842 8.29506 20.7383 8.23864C20.6083 8.08113 20.4808 7.93113 20.3508 7.78367C19.8859 7.25867 19.3983 6.78363 18.9634 6.37867C18.8833 6.29865 18.7958 6.21867 18.7059 6.14113C18.3683 5.83367 18.0609 5.56616 17.8034 5.35863C17.7255 5.29879 17.6558 5.23984 17.5909 5.18499C17.5473 5.1482 17.506 5.11326 17.4659 5.08113C17.3872 5.02256 17.319 4.97062 17.2619 4.92709C17.2264 4.90004 17.1952 4.87625 17.1683 4.85613C17.1483 4.84115 17.1258 4.83114 17.1033 4.82363L16.8184 4.74365V2.38367C16.8184 1.99866 16.6633 1.65367 16.4159 1.40115C16.1684 1.14863 15.8234 0.993652 15.4433 0.993652C14.6833 0.993652 14.0684 1.61615 14.0684 2.38367V3.97365L13.9259 3.93363L13.5383 3.82365L13.1859 3.72615C13.1848 3.72615 13.1838 3.72572 13.1825 3.72521C13.1808 3.72451 13.1788 3.72366 13.1759 3.72366H13.1684L10.4933 2.99865C10.3758 2.96615 10.2759 3.09365 10.3359 3.20115L10.7633 3.99116C10.7876 4.05178 10.8183 4.1124 10.8498 4.1747C10.8703 4.21515 10.8912 4.25631 10.9108 4.29863C10.9809 4.43868 11.0508 4.58614 11.1184 4.73365C11.1783 4.86364 11.2384 4.99115 11.3083 5.13114C11.3376 5.19648 11.3673 5.2626 11.3975 5.32966C11.5095 5.57822 11.6272 5.8396 11.7434 6.12118L11.7443 6.12343C11.844 6.36017 11.9437 6.59694 12.0309 6.84365C12.2708 7.46615 12.4983 8.13114 12.6959 8.81366C12.745 8.96627 12.7842 9.11398 12.824 9.26367C12.841 9.3273 12.858 9.39129 12.8759 9.45616L12.9033 9.57615C12.9834 9.89367 13.0533 10.2086 13.1034 10.5262C13.1434 10.7437 13.1809 10.9511 13.2009 11.1612C13.2309 11.3986 13.2609 11.6361 13.2708 11.8736C13.2908 12.0912 13.3008 12.3187 13.3008 12.5361C13.3008 13.0911 13.2509 13.6262 13.1334 14.1311C13.1261 14.158 13.1188 14.1853 13.1114 14.2127C13.0784 14.3359 13.0442 14.4635 13.0033 14.5862C12.9664 14.7173 12.9185 14.8485 12.8688 14.9846C12.8513 15.0328 12.8335 15.0815 12.8159 15.1311C12.8126 15.1398 12.8094 15.1484 12.8062 15.1571C12.7694 15.2563 12.7319 15.3573 12.6859 15.4562C12.4384 16.0511 12.1309 16.6437 11.8133 17.1986C11.3484 18.0211 10.8808 18.7437 10.5534 19.2087C10.5333 19.2388 10.5136 19.2675 10.4948 19.2951C10.4714 19.3293 10.4491 19.3618 10.4283 19.3936C10.3259 19.5387 10.4308 19.7437 10.6084 19.7437H14.0684V22.4762H10.5683C9.62838 22.4762 8.75834 21.9436 8.33835 21.0912C8.12086 20.6637 8.03586 20.1937 8.08588 19.7337C8.09837 19.5961 7.99585 19.4661 7.85585 19.4661H0.785843C0.665854 19.4661 0.568359 19.5636 0.568359 19.6836V19.8287C0.568359 24.3387 4.21086 27.9937 8.70583 27.9937H21.3883C23.7657 27.9937 25.1156 25.8273 26.4424 23.6979C26.8123 23.1044 27.1803 22.5137 27.5684 21.9736C28.2659 21.0037 29.9434 20.2337 30.4333 20.0236C30.5134 19.9887 30.5684 19.9086 30.5684 19.8187ZM2.45834 16.2464L2.35338 16.4114C2.26086 16.5539 2.36333 16.7439 2.53836 16.7439H9.04833C9.12084 16.7439 9.18838 16.7089 9.22834 16.6489C9.31335 16.5189 9.39337 16.3839 9.46583 16.2464C10.0284 15.3014 10.5284 14.2789 10.7109 13.5239C11.1384 11.6889 10.2258 8.74142 9.16838 6.37138C9.09835 6.21392 8.88087 6.19888 8.78835 6.34391L2.45834 16.2464Z" fill="#131619"/>
</svg>
