<svg width="46" height="47" viewBox="0 0 46 47" fill="none" xmlns="http://www.w3.org/2000/svg">
<path d="M41.9871 42.9595C40.2603 44.6862 38.0615 45.5719 35.0049 46.0203C31.9314 46.4712 28.0535 46.4724 23 46.4724C17.9465 46.4724 14.0686 46.4712 10.9951 46.0203C7.93846 45.5719 5.73966 44.6862 4.01293 42.9595C2.28621 41.2328 1.40056 39.034 0.952127 35.9773C0.50122 32.9038 0.5 29.0259 0.5 23.9724C0.5 18.9189 0.50122 15.041 0.952127 11.9675C1.40056 8.91088 2.28621 6.71207 4.01293 4.98535C5.73966 3.25862 7.93846 2.37297 10.9951 1.92454C14.0686 1.47363 17.9465 1.47241 23 1.47241C28.0535 1.47241 31.9314 1.47363 35.0049 1.92454C38.0615 2.37297 40.2603 3.25862 41.9871 4.98535C43.7138 6.71207 44.5994 8.91088 45.0479 11.9675C45.4988 15.041 45.5 18.9189 45.5 23.9724C45.5 29.0259 45.4988 32.9038 45.0479 35.9773C44.5994 39.034 43.7138 41.2328 41.9871 42.9595Z" stroke="url(#paint0_linear_761_1971)"/>
<path d="M23.1508 10.1725L22.9666 10.7985V28.9609L23.1508 29.1448L31.5815 24.1613L23.1508 10.1725Z" fill="url(#paint1_linear_761_1971)"/>
<path d="M23.1508 10.1725L14.72 24.1613L23.1508 29.1448V20.3292V10.1725Z" fill="url(#paint2_linear_761_1971)"/>
<path d="M23.1507 30.7411L23.0469 30.8678V37.3375L23.1507 37.6407L31.5865 25.7603L23.1507 30.7411Z" fill="url(#paint3_linear_761_1971)"/>
<path d="M23.1508 37.6407V30.7411L14.72 25.7603L23.1508 37.6407Z" fill="url(#paint4_linear_761_1971)"/>
<path d="M23.1506 29.1447L31.5813 24.1612L23.1506 20.3291V29.1447Z" fill="url(#paint5_linear_761_1971)"/>
<path d="M14.72 24.1612L23.1508 29.1447V20.3291L14.72 24.1612Z" fill="url(#paint6_linear_761_1971)"/>
<defs>
<linearGradient id="paint0_linear_761_1971" x1="23" y1="-22.0276" x2="-23" y2="23.9724" gradientUnits="userSpaceOnUse">
<stop stop-color="#33FF99"/>
<stop offset="1" stop-color="#00CCFF"/>
</linearGradient>
<linearGradient id="paint1_linear_761_1971" x1="27.274" y1="0.686343" x2="12.9895" y2="7.17267" gradientUnits="userSpaceOnUse">
<stop stop-color="#33FF99"/>
<stop offset="1" stop-color="#00CCFF"/>
</linearGradient>
<linearGradient id="paint2_linear_761_1971" x1="18.9354" y1="0.686343" x2="4.8543" y2="6.94367" gradientUnits="userSpaceOnUse">
<stop stop-color="#33FF99"/>
<stop offset="1" stop-color="#00CCFF"/>
</linearGradient>
<linearGradient id="paint3_linear_761_1971" x1="27.3167" y1="19.82" x2="16.0557" y2="27.9145" gradientUnits="userSpaceOnUse">
<stop stop-color="#33FF99"/>
<stop offset="1" stop-color="#00CCFF"/>
</linearGradient>
<linearGradient id="paint4_linear_761_1971" x1="18.9354" y1="19.82" x2="7.7211" y2="27.7782" gradientUnits="userSpaceOnUse">
<stop stop-color="#33FF99"/>
<stop offset="1" stop-color="#00CCFF"/>
</linearGradient>
<linearGradient id="paint5_linear_761_1971" x1="27.366" y1="15.9213" x2="18.5592" y2="24.3436" gradientUnits="userSpaceOnUse">
<stop stop-color="#33FF99"/>
<stop offset="1" stop-color="#00CCFF"/>
</linearGradient>
<linearGradient id="paint6_linear_761_1971" x1="18.9354" y1="15.9213" x2="10.1286" y2="24.3438" gradientUnits="userSpaceOnUse">
<stop stop-color="#33FF99"/>
<stop offset="1" stop-color="#00CCFF"/>
</linearGradient>
</defs>
</svg>
