<svg width="46" height="47" viewBox="0 0 46 47" fill="none" xmlns="http://www.w3.org/2000/svg">
<path d="M25.217 31.3843V33.9636L22.9681 35.2852L20.7832 33.9636V31.3843L22.9681 32.7059L25.217 31.3843ZM13.1841 22.4636L15.369 23.7852V28.2082L19.1313 30.4571V33.0363L13.1841 29.5298V22.4636ZM32.7415 22.4636V29.5405L26.7304 33.047V30.4677L30.4927 28.2189V23.7958L32.7415 22.4636ZM26.7304 18.9571L28.9793 20.2787V22.8579L25.217 25.1068V29.6044L23.0321 30.926L20.8472 29.6044V25.1068L16.9464 22.8579V20.2787L19.1952 18.9571L22.9575 21.2059L26.7304 18.9571ZM16.9464 24.7124L19.1313 26.034V28.6132L16.9464 27.2916V24.7124ZM28.9793 24.7124V27.2916L26.7944 28.6132V26.034L28.9793 24.7124ZM15.369 16.7082L17.6178 18.0298L15.369 19.3621V21.9413L13.1841 20.6091V18.0298L15.369 16.7082ZM30.5673 16.7082L32.8161 18.0298V20.6091L30.5673 21.9307V19.3621L28.3824 18.0405L30.5673 16.7082ZM22.9681 16.7082L25.217 18.0298L22.9681 19.3621L20.7832 18.0298L22.9681 16.7082ZM22.9681 12.2852L28.9793 15.7916L26.7944 17.1132L23.0321 14.8644L19.1952 17.1132L17.021 15.7916L22.9681 12.2852Z" fill="url(#paint0_linear_761_1986)"/>
<path d="M41.9871 42.7722C40.2603 44.499 38.0615 45.3846 35.0049 45.833C31.9314 46.2839 28.0535 46.2852 23 46.2852C17.9465 46.2852 14.0686 46.2839 10.9951 45.833C7.93846 45.3846 5.73966 44.499 4.01293 42.7722C2.28621 41.0455 1.40056 38.8467 0.952127 35.79C0.50122 32.7165 0.5 28.8386 0.5 23.7852C0.5 18.7317 0.50122 14.8538 0.952127 11.7803C1.40056 8.72362 2.28621 6.52482 4.01293 4.79809C5.73966 3.07137 7.93846 2.18572 10.9951 1.73728C14.0686 1.28638 17.9465 1.28516 23 1.28516C28.0535 1.28516 31.9314 1.28638 35.0049 1.73728C38.0615 2.18572 40.2603 3.07137 41.9871 4.79809C43.7138 6.52482 44.5994 8.72362 45.0479 11.7803C45.4988 14.8538 45.5 18.7317 45.5 23.7852C45.5 28.8386 45.4988 32.7165 45.0479 35.79C44.5994 38.8467 43.7138 41.0455 41.9871 42.7722Z" stroke="url(#paint1_linear_761_1986)"/>
<defs>
<linearGradient id="paint0_linear_761_1986" x1="23.0001" y1="0.785156" x2="0.285421" y2="20.1737" gradientUnits="userSpaceOnUse">
<stop stop-color="#33FF99"/>
<stop offset="1" stop-color="#00CCFF"/>
</linearGradient>
<linearGradient id="paint1_linear_761_1986" x1="23" y1="-22.2148" x2="-23" y2="23.7852" gradientUnits="userSpaceOnUse">
<stop stop-color="#33FF99"/>
<stop offset="1" stop-color="#00CCFF"/>
</linearGradient>
</defs>
</svg>
