<svg width="46" height="47" viewBox="0 0 46 47" fill="none" xmlns="http://www.w3.org/2000/svg">
<path d="M41.9871 42.7722C40.2603 44.499 38.0615 45.3846 35.0049 45.833C31.9314 46.2839 28.0535 46.2852 23 46.2852C17.9465 46.2852 14.0686 46.2839 10.9951 45.833C7.93846 45.3846 5.73966 44.499 4.01293 42.7722C2.28621 41.0455 1.40056 38.8467 0.952127 35.79C0.50122 32.7165 0.5 28.8386 0.5 23.7852C0.5 18.7317 0.50122 14.8538 0.952127 11.7803C1.40056 8.72362 2.28621 6.52482 4.01293 4.79809C5.73966 3.07137 7.93846 2.18572 10.9951 1.73728C14.0686 1.28638 17.9465 1.28516 23 1.28516C28.0535 1.28516 31.9314 1.28638 35.0049 1.73728C38.0615 2.18572 40.2603 3.07137 41.9871 4.79809C43.7138 6.52482 44.5994 8.72362 45.0479 11.7803C45.4988 14.8538 45.5 18.7317 45.5 23.7852C45.5 28.8386 45.4988 32.7165 45.0479 35.79C44.5994 38.8467 43.7138 41.0455 41.9871 42.7722Z" stroke="url(#paint0_linear_761_1989)"/>
<path fill-rule="evenodd" clip-rule="evenodd" d="M12.1914 34.2852C11.2766 34.2852 10.8222 34.2852 10.5471 34.1088C10.2512 33.9174 10.0688 33.5976 10.0449 33.2448C10.0299 32.9189 10.2542 32.5213 10.7086 31.7261L21.4679 12.7635C21.9253 11.9563 22.1555 11.5557 22.4485 11.4062C22.7624 11.2448 23.1391 11.2448 23.453 11.4062C23.7429 11.5557 23.9761 11.9593 24.4305 12.7635L26.6428 16.623L26.6548 16.6439C27.151 17.5079 27.3992 17.9443 27.5098 18.4047C27.6323 18.907 27.6323 19.4361 27.5098 19.9384C27.3992 20.4017 27.151 20.8442 26.6488 21.7201L20.9986 31.7112L20.9836 31.7381L20.9582 31.7823C20.4757 32.6231 20.2273 33.0561 19.8835 33.3823C19.5038 33.747 19.0464 34.0101 18.5441 34.1596C18.0867 34.2852 17.5725 34.2852 16.5471 34.2852H12.1914ZM25.3962 33.2388C25.3782 32.9159 25.6054 32.5213 26.0628 31.7351L26.0688 31.7142L29.1839 26.3629C29.6443 25.5736 29.8745 25.182 30.1615 25.0325C30.4754 24.8711 30.8461 24.8711 31.16 25.0325C31.447 25.179 31.6682 25.5527 32.1077 26.2971L32.1435 26.3569L35.2706 31.7082C35.2781 31.7216 35.2855 31.7343 35.293 31.747C35.3005 31.7597 35.308 31.7725 35.3154 31.7859C35.7489 32.5333 35.9702 32.9159 35.9552 33.2299C35.9373 33.5856 35.7519 33.9085 35.453 34.1028C35.1779 34.2852 34.7145 34.2852 33.7938 34.2852H27.5516C26.6308 34.2852 26.1675 34.2852 25.8984 34.1088C25.5994 33.9174 25.4171 33.5916 25.3962 33.2388Z" fill="url(#paint1_linear_761_1989)"/>
<defs>
<linearGradient id="paint0_linear_761_1989" x1="23" y1="-22.2148" x2="-23" y2="23.7852" gradientUnits="userSpaceOnUse">
<stop stop-color="#33FF99"/>
<stop offset="1" stop-color="#00CCFF"/>
</linearGradient>
<linearGradient id="paint1_linear_761_1989" x1="23.0001" y1="-0.214844" x2="0.162494" y2="25.5139" gradientUnits="userSpaceOnUse">
<stop stop-color="#33FF99"/>
<stop offset="1" stop-color="#00CCFF"/>
</linearGradient>
</defs>
</svg>
