<svg width="92" height="92" viewBox="0 0 92 92" fill="none" xmlns="http://www.w3.org/2000/svg">
<path fill-rule="evenodd" clip-rule="evenodd" d="M46 91C65.7188 91 76.6807 91 83.8404 83.8404C91 76.6807 91 65.7188 91 46C91 26.2813 91 15.3193 83.8404 8.15966C76.6807 1 65.7188 1 46 1C26.2813 1 15.3193 1 8.15966 8.15966C1 15.3193 1 26.2813 1 46C1 65.7188 1 76.6807 8.15966 83.8404C15.3193 91 26.2813 91 46 91Z" stroke="black" stroke-width="2"/>
<path fill-rule="evenodd" clip-rule="evenodd" d="M51.4936 47.8776C51.1868 47.9007 49.6015 47.9958 46.0652 47.9958C43.2526 47.9958 41.2556 47.911 40.555 47.8776C29.6855 47.397 21.5723 45.4949 21.5723 43.2177C21.5723 40.9404 29.6855 39.0409 40.555 38.5526V45.9833C41.2658 46.0347 43.3012 46.1555 46.1138 46.1555C49.4889 46.1555 51.1791 46.0141 51.4834 45.9859V38.5577C62.3299 39.0435 70.4252 40.9455 70.4252 43.2177C70.4252 45.4898 62.3325 47.3918 51.4834 47.875L51.4936 47.8776ZM51.4936 37.7892V31.1398H66.6307V21H25.4179V31.1398H40.5524V37.7866C28.251 38.3546 19 40.8041 19 43.7394C19 46.6747 28.251 49.1216 40.5524 49.6922V71H51.491V49.6845C63.7643 49.1165 73 46.6696 73 43.7369C73 40.8041 63.772 38.3572 51.491 37.7866L51.4936 37.7892Z" fill="black"/>
</svg>
