<svg width="92" height="92" viewBox="0 0 92 92" fill="none" xmlns="http://www.w3.org/2000/svg">
<path fill-rule="evenodd" clip-rule="evenodd" d="M59.9733 32.6014C58.0396 27.6933 53.1968 27.2504 47.5565 28.3464L45.5509 21.3438L41.288 22.5672L43.2401 29.3861C42.1208 29.7073 40.9814 30.0564 39.8508 30.4067L37.8814 23.5453L33.6222 24.7665L35.6309 31.7642L27.0413 34.2415L28.3476 38.7938C28.3476 38.7938 31.478 37.8312 31.4424 37.9043C33.1689 37.41 34.019 38.2503 34.4299 39.0688L39.9291 58.2498C40.0091 58.8148 39.9379 59.7722 38.7316 60.1183C38.8003 60.151 35.6313 61.0028 35.6313 61.0028L36.2474 66.342L44.8453 63.9042L46.8778 70.9863L51.1353 69.766L49.1269 62.7587C50.3047 62.4463 51.4364 62.1325 52.5398 61.8151L54.5379 68.7903L58.8 67.5673L56.7744 60.4971C63.8223 58.0306 68.3205 54.7871 67.0136 47.8851C65.9629 42.3232 62.7222 40.6357 58.3737 40.8247C60.4829 38.8555 61.3923 36.1962 59.9716 32.6055L59.9733 32.6014ZM58.3496 49.4562C59.7414 54.3136 52.0813 56.3944 48.578 57.346L48.5777 57.3461C48.2638 57.4313 47.9832 57.5075 47.7456 57.5759L45.0564 48.1927C45.3467 48.1095 45.6968 48.0001 46.0935 47.8762C49.6448 46.7664 56.9243 44.4916 58.3506 49.4547L58.3496 49.4562ZM44.5327 43.7038C47.4589 42.917 53.8416 41.2009 52.5762 36.7848L52.5733 36.786C51.28 32.273 45.2228 34.1831 42.2598 35.1175C41.9254 35.223 41.6303 35.316 41.3861 35.386L43.8295 43.8965C44.0298 43.839 44.267 43.7753 44.5327 43.7038Z" fill="black"/>
<path fill-rule="evenodd" clip-rule="evenodd" d="M46 91C65.7188 91 76.6807 91 83.8404 83.8404C91 76.6807 91 65.7188 91 46C91 26.2813 91 15.3193 83.8404 8.15966C76.6807 1 65.7188 1 46 1C26.2813 1 15.3193 1 8.15966 8.15966C1 15.3193 1 26.2813 1 46C1 65.7188 1 76.6807 8.15966 83.8404C15.3193 91 26.2813 91 46 91Z" stroke="black" stroke-width="2"/>
</svg>
