<svg width="92" height="92" viewBox="0 0 92 92" fill="none" xmlns="http://www.w3.org/2000/svg">
<path d="M29.7855 46L29.8119 55.6706L38.0289 60.5059V66.1676L25.0029 58.5279V43.1721L29.7855 46ZM29.7855 36.3294V41.9648L25 39.1339V33.4986L29.7855 30.6677L34.5944 33.4986L29.7855 36.3294ZM41.4605 33.4986L46.246 30.6677L51.055 33.4986L46.246 36.3294L41.4605 33.4986Z" fill="black"/>
<path d="M33.2437 53.6662V48.0045L38.0291 50.8353V56.4707L33.2437 53.6662ZM41.4607 62.5338L46.2462 65.3647L51.0551 62.5338V68.1692L46.2462 71L41.4607 68.1692V62.5338ZM57.9184 33.4986L62.7038 30.6677L67.5128 33.4986V39.1339L62.7038 41.9648V36.3294L57.9184 33.4986ZM62.7038 55.6706L62.7302 46L67.5157 43.1692V58.5249L54.4897 66.1647V60.503L62.7038 55.6706Z" fill="black"/>
<path d="M59.2723 53.6661L54.4868 56.4706V50.8352L59.2723 48.0044V53.6661Z" fill="black"/>
<path d="M59.2722 38.3338L59.2986 43.9955L51.0581 48.8308V58.5249L46.2726 61.3294L41.4871 58.5249V48.8308L33.2466 43.9955V38.3338L38.0526 35.503L46.2433 40.3617L54.4838 35.503L59.2927 38.3338H59.2722ZM33.2437 28.6662L46.2462 21L59.2722 28.6662L54.4868 31.497L46.2462 26.6383L38.0291 31.497L33.2437 28.6662Z" fill="black"/>
<path fill-rule="evenodd" clip-rule="evenodd" d="M46 91C65.7188 91 76.6807 91 83.8404 83.8404C91 76.6807 91 65.7188 91 46C91 26.2813 91 15.3193 83.8404 8.15966C76.6807 1 65.7188 1 46 1C26.2813 1 15.3193 1 8.15966 8.15966C1 15.3193 1 26.2813 1 46C1 65.7188 1 76.6807 8.15966 83.8404C15.3193 91 26.2813 91 46 91Z" stroke="black" stroke-width="2"/>
</svg>
