<svg width="92" height="92" viewBox="0 0 92 92" fill="none" xmlns="http://www.w3.org/2000/svg">
<path fill-rule="evenodd" clip-rule="evenodd" d="M46 91C65.7188 91 76.6807 91 83.8404 83.8404C91 76.6807 91 65.7188 91 46C91 26.2813 91 15.3193 83.8404 8.15966C76.6807 1 65.7188 1 46 1C26.2813 1 15.3193 1 8.15966 8.15966C1 15.3193 1 26.2813 1 46C1 65.7188 1 76.6807 8.15966 83.8404C15.3193 91 26.2813 91 46 91Z" stroke="black" stroke-width="2"/>
<path fill-rule="evenodd" clip-rule="evenodd" d="M43.9241 21.5607C44.8289 20.8131 46.1448 20.8131 47.0496 21.5607C53.6776 27.037 61.235 26.9947 64.1596 26.9783C64.3055 26.9775 64.4399 26.9767 64.562 26.9767C65.215 26.9767 65.8407 27.2359 66.2989 27.6961C66.7571 28.1563 67.0096 28.7792 66.9997 29.4251C66.8613 38.501 66.4936 44.9787 65.772 49.7262C65.0509 54.4708 63.9453 57.7225 62.1635 60.1724C60.3691 62.6396 58.0629 64.0404 55.6072 65.3831C55.1816 65.6157 54.7477 65.8486 54.3035 66.0869C52.1479 67.2438 49.7519 68.5296 46.9079 70.5479C46.0585 71.1507 44.9152 71.1507 44.0658 70.5479C41.2245 68.5315 38.8316 67.2463 36.6793 66.0903C36.233 65.8506 35.7971 65.6165 35.3697 65.3826C32.9159 64.0395 30.6127 62.6383 28.8218 60.1702C27.044 57.7202 25.9421 54.4687 25.2237 49.725C24.5047 44.978 24.1387 38.5008 24.0003 29.4251C23.9904 28.7792 24.2429 28.1563 24.7011 27.6961C25.1593 27.2359 25.785 26.9767 26.438 26.9767C26.5587 26.9767 26.6918 26.9775 26.8364 26.9783C29.7373 26.9947 37.2956 27.0374 43.9241 21.5607ZM28.9198 31.7856C29.0834 39.5212 29.4394 45.006 30.0458 49.0102C30.7145 53.4254 31.6566 55.805 32.7828 57.357C33.8959 58.891 35.3567 59.8625 37.7301 61.1615C38.1166 61.3731 38.5243 61.5918 38.9525 61.8215C40.7779 62.8009 42.975 63.9796 45.4869 65.6514C48.0022 63.9775 50.2027 62.7979 52.0311 61.8178C52.4574 61.5893 52.8635 61.3716 53.2486 61.161C55.625 59.8617 57.0894 58.8897 58.2056 57.3549C59.3345 55.8028 60.2794 53.4233 60.9503 49.009C61.5588 45.0053 61.9163 39.5211 62.0802 31.786C58.3268 31.6663 51.7166 30.8995 45.4868 26.463C39.2646 30.8942 32.6638 31.6644 28.9198 31.7856Z" fill="black"/>
</svg>
